<?xml version="1.0" encoding="UTF-8" standalone="no"?>
<!-- Created with Inkscape (http://www.inkscape.org/) -->

<svg
   xmlns:dc="http://purl.org/dc/elements/1.1/"
   xmlns:cc="http://creativecommons.org/ns#"
   xmlns:rdf="http://www.w3.org/1999/02/22-rdf-syntax-ns#"
   xmlns:svg="http://www.w3.org/2000/svg"
   xmlns="http://www.w3.org/2000/svg"
   xmlns:sodipodi="http://sodipodi.sourceforge.net/DTD/sodipodi-0.dtd"
   xmlns:inkscape="http://www.inkscape.org/namespaces/inkscape"
   width="297mm"
   height="170mm"
   viewBox="0 0 297 170"
   version="1.1"
   id="svg8"
   inkscape:version="0.92.4 (5da689c313, 2019-01-14)"
   sodipodi:docname="logo.svg">
  <defs
     id="defs2">
    <pattern
       y="0"
       x="0"
       height="6"
       width="6"
       patternUnits="userSpaceOnUse"
       id="EMFhbasepattern" />
  </defs>
  <sodipodi:namedview
     id="base"
     pagecolor="#ffffff"
     bordercolor="#666666"
     borderopacity="1.0"
     inkscape:pageopacity="0.0"
     inkscape:pageshadow="2"
     inkscape:zoom="0.35"
     inkscape:cx="-50"
     inkscape:cy="560"
     inkscape:document-units="mm"
     inkscape:current-layer="layer1"
     showgrid="false"
     inkscape:window-width="1920"
     inkscape:window-height="1017"
     inkscape:window-x="-8"
     inkscape:window-y="-8"
     inkscape:window-maximized="1"
     height="180mm" />
  <metadata
     id="metadata5">
    <rdf:RDF>
      <cc:Work
         rdf:about="">
        <dc:format>image/svg+xml</dc:format>
        <dc:type
           rdf:resource="http://purl.org/dc/dcmitype/StillImage" />
        <dc:title></dc:title>
      </cc:Work>
    </rdf:RDF>
  </metadata>
  <g
     inkscape:label="Ebene 1"
     inkscape:groupmode="layer"
     id="layer1"
     transform="translate(0,-127)">
    <g
       transform="matrix(1.1019878,0,0,-1.1019878,-68.677996,742.35565)"
       inkscape:label="logo"
       id="g55">
      <g
         transform="translate(-216,-15035)"
         id="g57">
        <path
           inkscape:connector-curvature="0"
           id="path59"
           style="fill:#3d87cb;fill-opacity:1;fill-rule:nonzero;stroke:none"
           d="m 429.7646,15487.631 c -3.877,0.416 -7.9724,1.796 -10.5284,3.55 -0.4422,0.304 -0.8865,0.552 -0.987,0.552 -0.1,0 -0.6848,-0.222 -1.2984,-0.494 -3.1768,-1.404 -9.0755,-3.09 -10.0009,-2.859 -0.2688,0.07 -0.6609,0.341 -0.8705,0.609 -0.3569,0.452 -0.382,0.79 -0.382,4.973 0,2.468 0.0699,4.53 0.1562,4.583 0.0853,0.05 1.017,0.234 2.0699,0.402 3.7105,0.593 8.0837,1.775 8.3987,2.271 0.0831,0.131 0.1521,3.684 0.1541,7.896 0.003,7.027 -0.024,7.67 -0.3239,7.785 -0.1794,0.07 -2.1508,-0.04 -4.3802,-0.243 -5.0459,-0.457 -5.0759,-0.456 -5.6297,0.186 -0.4352,0.506 -0.4451,0.614 -0.4451,4.542 v 4.024 l 0.6255,0.1 c 0.3441,0.05 2.6976,0.271 5.2307,0.482 3.1962,0.267 4.6523,0.461 4.7623,0.633 0.2209,0.348 0.2016,3.419 -0.0342,5.296 -0.436,3.478 -1.5702,5.068 -4.4494,6.238 -0.796,0.323 -1.6062,0.445 -3.5357,0.535 l -2.5031,0.116 -0.052,4.697 c -0.0573,5.265 -0.0322,5.384 1.2704,5.934 0.5766,0.242 1.2025,0.275 3.4095,0.177 10.0482,-0.448 15.4082,-3.79 17.6745,-11.02 1.039,-3.314 1.0912,-4.302 1.0912,-20.715 0,-9.953 0.0699,-15.491 0.2075,-16.243 0.4041,-2.23 1.5333,-3.422 3.8526,-4.066 l 1.1915,-0.332 -0.1384,-4.721 c -0.0762,-2.597 -0.1804,-4.789 -0.2308,-4.87 -0.09,-0.147 -2.985,-0.157 -4.3049,-0.02 z m 32.9241,0.08 c -9.3871,1.208 -14.7572,5.419 -17.4117,13.651 -1.6587,5.147 -2.13,9.014 -2.121,17.424 0.008,6.891 0.1816,9.015 1.0791,13.188 2.2452,10.431 7.4569,15.545 17.5871,17.26 2.3958,0.405 9.2339,0.462 12.3226,0.102 5.2536,-0.612 11.4048,-1.793 11.5663,-2.22 0.0461,-0.121 -0.0251,-2.387 -0.1575,-5.035 l -0.2417,-4.813 -1.444,0.03 c -0.7943,0.02 -2.8739,0.171 -4.6208,0.345 -10.2699,1.025 -15.5867,0.341 -18.9621,-2.441 -2.114,-1.743 -3.4408,-5.418 -3.9621,-10.983 -0.2668,-2.84 -0.1405,-10.972 0.2056,-13.213 0.6066,-3.933 1.6828,-6.785 3.1938,-8.467 3.1899,-3.547 10.2898,-4.392 22.5611,-2.684 1.6176,0.225 2.9855,0.365 3.0406,0.31 0.1705,-0.171 0.4924,-10.214 0.332,-10.366 -0.2319,-0.218 -8.0114,-1.479 -11.8,-1.912 -3.5251,-0.402 -8.7605,-0.484 -11.1673,-0.174 z m 49.7711,-0.08 c -1.9253,0.118 -5.4382,0.477 -7.4127,0.758 -2.4908,0.353 -6.9545,1.189 -7.0939,1.328 -0.1774,0.178 0.3179,10.146 0.5135,10.343 0.1194,0.118 1.1763,0.07 2.9503,-0.122 7.4088,-0.822 15.6568,-1.193 19.8707,-0.893 5.3438,0.379 7.6593,1.416 8.8257,3.955 0.3578,0.777 0.4431,1.296 0.444,2.695 0,1.506 -0.0692,1.876 -0.5334,2.821 -0.303,0.616 -0.8394,1.32 -1.2383,1.625 -1.4111,1.075 -4.4877,1.931 -11.7149,3.258 -6.4822,1.19 -8.9973,1.859 -11.9263,3.174 -2.8591,1.282 -5.1727,3.234 -6.2948,5.309 -2.1048,3.891 -2.4457,11.429 -0.7381,16.348 1.8623,5.369 7.4532,9.413 14.9259,10.798 3.7155,0.689 11.5483,0.557 18.612,-0.314 2.9272,-0.361 8.3514,-1.233 9.0956,-1.461 0.354,-0.11 0.3629,-0.308 0.2437,-5.324 -0.0674,-2.866 -0.1895,-5.276 -0.271,-5.358 -0.0811,-0.08 -1.101,-0.02 -2.2652,0.134 -9.0173,1.187 -18.6172,1.602 -22.4308,0.97 -4.0211,-0.666 -5.8755,-2.255 -6.1149,-5.239 -0.2057,-2.551 0.804,-4.354 2.9843,-5.333 1.5824,-0.709 4.8304,-1.513 10.2847,-2.544 8.662,-1.636 11.8221,-2.686 15.1152,-5.022 2.209,-1.567 3.56,-3.682 4.4453,-6.961 0.4776,-1.766 0.5076,-2.137 0.5175,-6.4 0.0112,-4.148 -0.0251,-4.659 -0.433,-6.161 -1.0973,-4.033 -3.2572,-6.958 -6.6656,-9.023 -2.5983,-1.575 -6.802,-2.838 -10.9326,-3.287 -1.6608,-0.181 -10.2329,-0.231 -12.7629,-0.07 z" />
        <path
           inkscape:connector-curvature="0"
           id="path61"
           style="fill:#333337;fill-opacity:1;fill-rule:nonzero;stroke:none"
           d="m 402.3592,15457.674 c -0.1262,0.153 -0.2756,4.041 -0.408,10.637 -0.2778,13.816 -0.2728,18.053 0.022,18.348 0.1514,0.151 0.9507,0.23 2.3145,0.23 1.9745,0 2.0939,-0.02 2.2805,-0.433 0.2294,-0.504 -0.2198,-28.389 -0.4633,-28.783 -0.2068,-0.332 -3.4689,-0.332 -3.7457,0 z" />
        <path
           inkscape:connector-curvature="0"
           id="path63"
           style="fill:#333337;fill-opacity:1;fill-rule:nonzero;stroke:none"
           d="m 396.0628,15487.968 c -3.5269,0.35 -5.5126,0.851 -7.6925,1.94 -4.0844,2.039 -6.5344,5.533 -7.7378,11.036 -0.2895,1.321 -0.3578,2.453 -0.3558,5.872 0.002,3.802 0.048,4.413 0.4492,5.968 1.5351,5.948 5.2728,9.316 12.3095,11.093 2.1869,0.552 5.5986,1.062 7.8408,1.173 l 1.1552,0.06 0.0511,-4.071 0.0522,-4.072 -0.4841,-0.577 c -0.3783,-0.448 -0.7823,-0.643 -1.8344,-0.881 -4.7113,-1.063 -6.6876,-3.873 -6.5041,-9.249 0.1293,-3.797 1.0899,-5.67 3.5208,-6.866 1.0621,-0.524 1.5294,-0.629 3.22,-0.732 l 1.9785,-0.121 0.0511,-4.427 c 0.0573,-4.818 -0.0231,-5.313 -0.9315,-5.784 -0.5504,-0.284 -3.6411,-0.502 -5.0882,-0.358 z" />
        <path
           inkscape:connector-curvature="0"
           id="path65"
           style="fill:#333337;fill-opacity:1;fill-rule:nonzero;stroke:none"
           d="m 284.149,15489.357 c -0.1919,0.124 -0.232,6.21 -0.1926,29.793 l 0.049,29.637 6.3406,0.05 c 4.945,0.04 6.3749,0 6.4952,-0.193 0.0854,-0.133 0.1555,-0.871 0.1575,-1.639 9e-4,-0.767 0.0672,-1.396 0.1474,-1.397 0.0793,0 1.2706,0.559 2.6474,1.242 2.8941,1.439 6.3849,2.658 8.8338,3.083 2.1568,0.375 5.815,0.379 8.2639,0.01 2.1904,-0.33 4.9722,-1.212 6.4883,-2.058 1.2243,-0.682 3.572,-2.544 3.7303,-2.957 0.1685,-0.438 0.4555,-0.359 3.1168,0.853 6.799,3.094 12.51,4.451 18.7295,4.448 9.7563,0 15.1011,-3.551 17.7104,-11.751 1.0869,-3.416 1.6508,-7.162 1.9565,-12.988 0.2619,-4.997 0.2588,-35.428 -0.004,-35.918 -0.1908,-0.356 -0.4655,-0.373 -6.3149,-0.373 -4.5005,0 -6.1774,0.06 -6.3477,0.231 -0.1754,0.177 -0.2307,4.411 -0.2307,17.884 0,10.535 -0.0793,18.459 -0.1956,19.648 -0.8253,8.394 -2.9129,11.14 -8.8537,11.641 -3.0706,0.259 -8.593,-0.785 -12.515,-2.367 -2.0988,-0.845 -1.9554,-0.494 -1.5222,-3.719 0.2186,-1.631 0.2708,-5.991 0.2708,-22.622 v -20.6 h -12.7076 l -0.1132,18.675 c -0.0954,15.774 -0.1604,18.996 -0.4222,20.741 -0.9348,6.222 -2.2092,8.251 -5.9006,9.401 -2.3846,0.741 -6.5903,0.655 -10.2186,-0.213 -1.5544,-0.371 -5.793,-1.952 -6.3047,-2.352 -0.1884,-0.147 -0.2506,-5.109 -0.2887,-23.22 l -0.0491,-23.032 -6.2576,-0.05 c -3.4415,-0.03 -6.3658,0.02 -6.4989,0.107 z" />
        <path
           inkscape:connector-curvature="0"
           id="path67"
           style="fill:#333337;fill-opacity:1;fill-rule:nonzero;stroke:none"
           d="m 384.1454,15536.914 c -0.0542,0.09 -0.2025,2.085 -0.3299,4.437 -0.1656,3.078 -0.1714,4.336 -0.0211,4.487 0.5226,0.522 10.9095,3.139 14.703,3.704 1.4872,0.222 1.9054,0.224 2.4019,0.02 1.1995,-0.501 1.2285,-0.641 1.2285,-6.002 0,-2.832 -0.0764,-4.903 -0.1815,-4.968 -0.1004,-0.06 -1.9848,-0.287 -4.1879,-0.499 -2.2041,-0.214 -5.9998,-0.602 -8.4344,-0.863 -4.968,-0.531 -5.0412,-0.536 -5.1786,-0.314 z" />
        <path
           inkscape:connector-curvature="0"
           id="path69"
           style="fill:#333337;fill-opacity:1;fill-rule:nonzero;stroke:none"
           d="m 401.9732,15551.232 c -0.2948,0.295 -0.3009,4.752 -0.022,18.444 0.1324,6.509 0.2829,10.389 0.4091,10.541 0.2356,0.285 3.1758,0.332 3.6082,0.06 0.2356,-0.149 0.3199,-2.364 0.5385,-14.264 0.2337,-12.749 0.2296,-14.133 -0.043,-14.549 -0.2861,-0.436 -0.4061,-0.461 -2.2805,-0.461 -1.2825,0 -2.0609,0.08 -2.2103,0.231 z" />
      </g>
    </g>
  </g>
</svg>
